<svg width="32" height="44" viewBox="0 0 32 44" fill="none" xmlns="http://www.w3.org/2000/svg">
<g clip-path="url(#clip0_616_910)">
<path d="M27.4022 28.517V30.2524C27.4022 31.7296 27.4023 31.7327 25.9392 31.9224V37.9088C26.1371 37.9286 26.332 37.9544 26.5253 37.9665C27.0688 37.9984 27.3855 38.2793 27.3916 38.8228C27.4048 40.2651 27.4048 41.7069 27.3916 43.1483C27.3916 43.6842 27.0871 43.9939 26.5268 43.9939C23.5591 43.9939 20.5909 43.9939 17.6221 43.9939C17.1091 43.9939 16.8 43.7161 16.7939 43.2014C16.7787 41.7333 16.7681 40.2651 16.7939 38.7985C16.8107 37.8587 17.6024 38.0106 18.2494 37.9149V31.9057H13.7673V37.9088C13.9729 37.9286 14.1906 37.9468 14.4068 37.9711C14.9107 38.0257 15.206 38.3051 15.2121 38.8091C15.2243 40.2515 15.2274 41.6938 15.2121 43.1361C15.2121 43.7161 14.8711 43.9985 14.2835 43.9985C11.3665 43.9985 8.44899 43.9985 5.531 43.9985C4.90071 43.9985 4.6008 43.6857 4.60384 43.0617C4.60384 41.873 4.60384 40.6842 4.60384 39.4939C4.60384 38.091 4.60383 38.0819 6.06232 37.8967V31.9148C5.86289 31.8936 5.66954 31.8587 5.47619 31.8526C4.87788 31.8344 4.60384 31.5186 4.60384 30.9417V28.4943L3.84263 28.6931C1.98526 29.1759 0.149206 27.9188 0.0746071 25.9998C-0.00303689 24.0048 -0.0304503 21.9992 0.0837321 20.0058C0.235975 17.3185 2.59878 15.2249 5.34829 15.1975C7.09452 15.1808 8.84076 15.1975 10.6433 15.1975V13.9374C9.46648 13.5988 8.29269 13.4455 7.31072 12.9308C6.19934 12.3493 6.10343 11.0953 6.10191 9.84272C5.41072 9.84272 4.78348 9.84272 4.15776 9.84272C3.32804 9.83209 3.09206 9.61802 3.09206 8.82247C3.08292 7.50666 3.08292 6.19086 3.09206 4.87506C3.09206 4.07343 3.33868 3.82899 4.12882 3.81229C4.75911 3.79863 5.3894 3.81229 6.10799 3.81229C6.12169 3.50864 6.13236 3.26117 6.14454 3.01826C6.22675 1.33757 7.40968 0.0561786 9.09653 0.039478C13.7125 -0.00404475 18.3306 -0.00404475 22.9507 0.039478C24.5736 0.0561786 25.7261 1.26925 25.8813 2.88921C25.9072 3.16249 25.9133 3.43728 25.9346 3.80925C26.6151 3.80925 27.2667 3.80925 27.9138 3.80925C28.6065 3.80925 28.9399 4.13265 28.9369 4.82648C28.9308 6.16658 28.9308 7.50769 28.9369 8.84981C28.9369 9.54516 28.608 9.86854 27.9062 9.8488C27.2759 9.82906 26.6441 9.8488 25.9361 9.8488C25.9498 12.9278 24.2051 13.9344 21.381 13.614V15.2036C23.1516 15.2036 24.8948 15.1733 26.6365 15.2036C28.6004 15.2476 30.2203 16.0523 31.1687 17.7846C31.6173 18.6565 31.8816 19.6109 31.9452 20.5888C32.07 22.1723 31.9848 23.7771 31.9817 25.3682C31.9817 27.9492 30.2492 29.261 27.7524 28.5778C27.6671 28.5565 27.5926 28.5443 27.4022 28.517ZM6.12778 30.3268H25.8585V16.7355H6.12778V30.3268ZM15.9566 12.155C18.1641 12.155 20.3717 12.155 22.5792 12.155C23.8261 12.155 24.3863 11.5887 24.3909 10.3331C24.4 8.00516 24.4 5.6772 24.3909 3.34924C24.3909 2.05418 23.8245 1.48788 22.5426 1.48636C18.1783 1.48636 13.814 1.48636 9.44973 1.48636C8.16023 1.48636 7.60911 2.04811 7.60759 3.34772C7.6015 5.64937 7.6015 7.95152 7.60759 10.2542C7.60759 11.61 8.14196 12.1474 9.48627 12.1504C11.643 12.1575 13.7998 12.1591 15.9566 12.155ZM4.60384 16.8509C2.88654 17.0346 1.55897 18.5938 1.52852 20.3687C1.50111 22.0858 1.51634 23.8029 1.52852 25.52C1.52852 26.68 2.1238 27.3525 3.09511 27.3298C4.02379 27.31 4.60383 26.6299 4.60687 25.5276C4.61296 23.0286 4.61296 20.5291 4.60687 18.0291L4.60384 16.8509ZM27.5027 16.8615C27.464 16.9209 27.4362 16.9867 27.4205 17.0559C27.4205 20.0088 27.3916 22.9618 27.4205 25.9133C27.4296 26.7741 28.1482 27.3556 28.9871 27.3298C29.1847 27.328 29.3801 27.2872 29.5618 27.2098C29.7436 27.1324 29.9082 27.0199 30.0462 26.8788C30.1842 26.7377 30.2928 26.5707 30.3658 26.3875C30.4388 26.2044 30.4747 26.0086 30.4715 25.8115C30.4973 23.9441 30.5202 22.0751 30.4608 20.2092C30.4075 18.524 29.0312 17.021 27.5027 16.8615ZM12.1688 31.9057H7.66544V37.8997H12.1688V31.9057ZM24.3482 31.9057H19.8449V37.8982H24.3482V31.9057ZM13.6912 39.4878H6.1354V42.4666H13.6912V39.4878ZM25.8707 39.4878H18.3149V42.4544H25.8707V39.4878ZM19.781 13.6778H12.219V15.1323H19.781V13.6778ZM4.60839 5.32749V8.30779H6.05623V5.32749H4.60839ZM25.9224 5.32749V8.30021H27.3703V5.32749H25.9224Z" fill="white"/>
<path d="M16.0023 28.057C14.5834 28.057 13.1645 28.057 11.7395 28.057C10.9219 28.057 10.6936 27.8293 10.6905 27.0246C10.6814 24.6966 10.6814 22.3717 10.6905 20.0498C10.6905 19.2512 10.9387 18.9962 11.7288 18.9871C14.5707 18.9779 17.408 18.9779 20.2407 18.9871C21.0278 18.9871 21.3064 19.2558 21.3064 20.0331C21.3156 22.3611 21.3156 24.6855 21.3064 27.0064C21.3064 27.8034 21.0537 28.0464 20.259 28.0509C18.8401 28.0646 17.4212 28.057 16.0023 28.057ZM19.7779 26.5388V20.5205H12.2449V26.5388H19.7779Z" fill="white"/>
<path d="M9.41776 19.6839C8.9519 20.0407 8.67634 20.4172 8.42057 20.4035C8.1648 20.3899 7.71872 19.9997 7.71263 19.7659C7.70654 19.5321 8.09172 19.0933 8.3551 19.0523C8.61849 19.0113 8.91992 19.3681 9.41776 19.6839Z" fill="white"/>
<path d="M23.6327 18.7001C23.96 19.1889 24.3209 19.4926 24.2874 19.7446C24.2539 19.9967 23.8306 20.4005 23.5855 20.399C23.3404 20.3975 22.9507 19.9693 22.9324 19.7082C22.9141 19.447 23.2871 19.1677 23.6327 18.7001Z" fill="white"/>
<path d="M8.43884 22.4972C8.74332 22.9937 9.10414 23.3079 9.06303 23.56C9.02193 23.812 8.5926 24.2037 8.34445 24.1961C8.09629 24.1885 7.72177 23.7497 7.71111 23.4871C7.70045 23.2244 8.0765 22.9557 8.43884 22.4972Z" fill="white"/>
<path d="M24.6421 23.4916C24.1732 23.8423 23.893 24.2158 23.6358 24.1991C23.3785 24.1824 22.94 23.7877 22.937 23.5539C22.9339 23.3201 23.3237 22.8843 23.587 22.8479C23.8504 22.8115 24.1473 23.1698 24.6421 23.4916Z" fill="white"/>
<path d="M8.39317 28.3561C8.05063 27.8794 7.68068 27.597 7.70808 27.3404C7.73548 27.0838 8.13283 26.8424 8.37033 26.595C8.61697 26.8333 9.02802 27.0504 9.06304 27.3161C9.09805 27.5818 8.72963 27.8657 8.39317 28.3561Z" fill="white"/>
<path d="M23.6007 26.2913C23.9418 26.7695 24.3132 27.0625 24.2874 27.3161C24.2615 27.5696 23.855 27.9841 23.6053 27.9902C23.3556 27.9962 22.9598 27.5802 22.9324 27.3191C22.905 27.058 23.2689 26.771 23.6007 26.2913Z" fill="white"/>
<path d="M11.4335 8.31536C10.846 8.30787 10.2841 8.07491 9.86449 7.66492C9.44485 7.25493 9.1998 6.69944 9.18027 6.11392C9.17454 5.51355 9.40679 4.93521 9.82648 4.50474C10.2462 4.07427 10.8193 3.82649 11.4213 3.81531C12.0099 3.82781 12.5717 4.06297 12.9929 4.47314C13.4141 4.88332 13.6632 5.43785 13.6897 6.02435C13.6882 6.62445 13.4513 7.20016 13.0297 7.62832C12.608 8.05647 12.0351 8.30307 11.4335 8.31536ZM12.3134 6.26726L12.3256 5.92718C12.0364 5.71614 11.7334 5.31987 11.4624 5.3472C11.1914 5.37453 10.7347 5.78295 10.7225 6.04105C10.7103 6.29915 11.132 6.7364 11.4122 6.78043C11.6923 6.82445 12.0105 6.454 12.3134 6.26726Z" fill="white"/>
<path d="M20.5833 8.31232C19.982 8.31192 19.4055 8.07366 18.9802 7.64983C18.555 7.22601 18.3157 6.65124 18.3149 6.05167C18.3253 5.46492 18.5624 4.90482 18.9768 4.48817C19.3912 4.07152 19.9509 3.83047 20.5391 3.81531C21.1423 3.82317 21.7186 4.06563 22.1452 4.49103C22.5718 4.91642 22.8149 5.49111 22.8228 6.09266C22.8054 6.67822 22.5635 7.23482 22.1468 7.64778C21.7302 8.06074 21.1705 8.29858 20.5833 8.31232ZM20.7766 5.1878L20.4326 5.1711C20.2225 5.45653 19.8312 5.75562 19.851 6.02435C19.8708 6.29308 20.2803 6.76523 20.53 6.77131C20.7797 6.77738 21.2379 6.37201 21.2912 6.09114C21.3445 5.81027 20.9624 5.49145 20.7705 5.1878H20.7766Z" fill="white"/>
<path d="M16.0617 9.12153C16.7437 9.12153 17.4319 9.12153 18.1078 9.12153C18.6026 9.12153 18.9832 9.34473 18.9893 9.85334C18.9954 10.3619 18.6361 10.5973 18.1291 10.5973H13.8831C13.3898 10.5973 13.0122 10.406 13.0031 9.87611C12.994 9.34625 13.3776 9.1352 13.8617 9.12609C14.5956 9.11091 15.3279 9.12153 16.0617 9.12153Z" fill="white"/>
</g>
<defs>
<clipPath id="clip0_616_910">
<rect width="32" height="44" fill="white"/>
</clipPath>
</defs>
</svg>
