<svg width="30" height="30" viewBox="0 0 30 30" fill="none" xmlns="http://www.w3.org/2000/svg">
<g clip-path="url(#clip0_616_888)">
<path d="M17.074 21.204C18.3015 19.9788 19.4287 18.8604 20.5513 17.7355C23.2192 15.0588 25.8847 12.3808 28.5476 9.70159C28.8353 9.41192 29.1379 9.2235 29.5446 9.38567C29.9513 9.54785 30 9.88908 30 10.2744C29.9962 16.5384 29.9962 22.8023 30 29.0663C30 29.7479 29.7461 30.0038 29.0742 30.0038H0.96604C0.276406 30.0038 0.00936087 29.7366 0.00748686 29.041C0.00748686 27.9002 -0.0131278 26.7593 0.0215413 25.6203C0.0324801 25.3308 0.143034 25.0539 0.334501 24.8366C3.51469 21.6124 6.7058 18.4001 9.90785 15.1997C10.367 14.7394 10.7558 14.7582 11.2412 15.2447C13.0834 17.0896 14.9233 18.937 16.7611 20.7868C16.8745 20.9188 16.9791 21.0582 17.074 21.204ZM10.5656 16.7249C10.4973 16.7713 10.4316 16.8213 10.3689 16.8749C7.49538 19.7622 4.62004 22.6502 1.74282 25.5387C1.65848 25.624 1.54698 25.7393 1.54511 25.8425C1.53012 26.7115 1.53667 27.5805 1.53667 28.4495H28.4492V12.0489L28.2937 11.9336C28.1925 12.0911 28.1147 12.2721 27.9854 12.4024C24.6291 15.7815 21.2693 19.1563 17.9061 22.5267C17.2905 23.1454 16.9841 23.1426 16.3788 22.5352C14.5673 20.7228 12.7598 18.9104 10.9564 17.098C10.8364 16.9771 10.7118 16.8636 10.5656 16.7249Z" fill="white"/>
<path d="M10.5394 7.3842L7.89891 10.0372C5.79565 12.152 3.69208 14.2663 1.58819 16.3799C1.4526 16.5305 1.2983 16.6631 1.12906 16.7746C0.787058 16.9752 0.460981 16.902 0.203305 16.6096C-0.0543708 16.3171 -0.0702993 16.0171 0.155518 15.7106C0.269977 15.5633 0.395258 15.4248 0.530319 15.2962C3.61306 12.197 6.69705 9.09847 9.78228 6.00054C10.3763 5.40339 10.7146 5.40058 11.3124 6.00054C13.1321 7.82418 14.9492 9.65063 16.7639 11.4799C16.8447 11.57 16.9153 11.6687 16.9747 11.7742L27.3239 1.53925C27.1365 1.528 26.9856 1.51301 26.8395 1.51301C25.6532 1.51301 24.467 1.51301 23.2789 1.50832C22.8816 1.50832 22.5799 1.34896 22.4609 0.945857C22.4099 0.795725 22.413 0.632491 22.4696 0.484409C22.5263 0.336326 22.6329 0.212713 22.771 0.134968C22.9175 0.0499083 23.0842 0.00587169 23.2536 0.00747762C25.2206 -0.00127184 27.1884 -0.00127184 29.1567 0.00747762C29.7189 0.00747762 29.9925 0.280273 29.9944 0.839926C30 2.82355 30 4.80718 29.9944 6.7908C29.9944 7.27733 29.6973 7.59419 29.2747 7.60638C28.8522 7.61856 28.4998 7.27921 28.4942 6.78799C28.4811 5.61619 28.4942 4.44438 28.4942 3.27352V2.64075C28.2853 2.82824 28.1513 2.94542 28.0257 3.06822C24.6425 6.46363 21.2596 9.85936 17.877 13.2554C17.3064 13.8282 16.9653 13.8179 16.3835 13.2376C14.5651 11.4121 12.7473 9.58656 10.9301 7.76105C10.8177 7.64668 10.7043 7.54169 10.5394 7.3842Z" fill="white"/>
</g>
<defs>
<clipPath id="clip0_616_888">
<rect width="30" height="30" fill="white"/>
</clipPath>
</defs>
</svg>
