<svg width="24" height="24" viewBox="0 0 24 24" fill="none" xmlns="http://www.w3.org/2000/svg">
<path d="M10.875 12C10.875 12.2984 10.9935 12.5845 11.2045 12.7955C11.4155 13.0065 11.7017 13.125 12 13.125C12.2984 13.125 12.5845 13.0065 12.7955 12.7955C13.0065 12.5845 13.125 12.2984 13.125 12C13.125 11.7016 13.0065 11.4155 12.7955 11.2045C12.5845 10.9935 12.2984 10.875 12 10.875C11.7017 10.875 11.4155 10.9935 11.2045 11.2045C10.9935 11.4155 10.875 11.7016 10.875 12ZM15.5625 12C15.5625 12.2984 15.681 12.5845 15.892 12.7955C16.103 13.0065 16.3892 13.125 16.6875 13.125C16.9859 13.125 17.272 13.0065 17.483 12.7955C17.694 12.5845 17.8125 12.2984 17.8125 12C17.8125 11.7016 17.694 11.4155 17.483 11.2045C17.272 10.9935 16.9859 10.875 16.6875 10.875C16.3892 10.875 16.103 10.9935 15.892 11.2045C15.681 11.4155 15.5625 11.7016 15.5625 12ZM6.18752 12C6.18752 12.2984 6.30605 12.5845 6.51703 12.7955C6.72801 13.0065 7.01415 13.125 7.31252 13.125C7.61089 13.125 7.89704 13.0065 8.10802 12.7955C8.319 12.5845 8.43752 12.2984 8.43752 12C8.43752 11.7016 8.319 11.4155 8.10802 11.2045C7.89704 10.9935 7.61089 10.875 7.31252 10.875C7.01415 10.875 6.72801 10.9935 6.51703 11.2045C6.30605 11.4155 6.18752 11.7016 6.18752 12ZM21.6844 7.93125C21.1547 6.67266 20.3953 5.54297 19.4274 4.57266C18.4662 3.60796 17.3251 2.84114 16.0688 2.31563C14.7797 1.77422 13.411 1.5 12 1.5H11.9531C10.5328 1.50703 9.15705 1.78828 7.8633 2.34141C6.61773 2.87232 5.48736 3.64049 4.53518 4.60312C3.57658 5.57109 2.82424 6.69609 2.30393 7.95C1.76487 9.24844 1.49299 10.6289 1.50002 12.0492C1.50798 13.6769 1.89305 15.2806 2.62502 16.7344V20.2969C2.62502 20.5828 2.73861 20.857 2.9408 21.0592C3.14299 21.2614 3.41721 21.375 3.70315 21.375H7.26799C8.72181 22.107 10.3255 22.492 11.9531 22.5H12.0024C13.4063 22.5 14.768 22.2281 16.05 21.6961C17.3 21.1768 18.4368 20.419 19.3969 19.4648C20.3649 18.5063 21.1266 17.3859 21.6586 16.1367C22.2117 14.843 22.493 13.4672 22.5 12.0469C22.5071 10.6195 22.2305 9.23438 21.6844 7.93125ZM18.143 18.1969C16.5 19.8234 14.3203 20.7188 12 20.7188H11.9602C10.5469 20.7117 9.14299 20.3602 7.90315 19.6992L7.70627 19.5938H4.40627V16.2938L4.3008 16.0969C3.63987 14.857 3.2883 13.4531 3.28127 12.0398C3.2719 9.70312 4.16487 7.50937 5.80315 5.85703C7.43909 4.20469 9.6258 3.29062 11.9625 3.28125H12.0024C13.1742 3.28125 14.311 3.50859 15.3821 3.95859C16.4274 4.39687 17.3649 5.02734 18.1711 5.83359C18.975 6.6375 19.6078 7.57734 20.0461 8.62266C20.5008 9.70547 20.7281 10.8539 20.7235 12.0398C20.7094 14.3742 19.793 16.5609 18.143 18.1969Z" fill="#FBC603"/>
</svg>
