<svg width="39" height="39" viewBox="0 0 39 39" fill="none" xmlns="http://www.w3.org/2000/svg">
<path d="M33.995 3.8675C32.1707 3.45892 30.307 3.25185 28.4375 3.25C26.6719 3.13789 24.9016 3.37593 23.2283 3.95042C21.555 4.52491 20.0118 5.42451 18.6875 6.5975C16.9433 8.34166 15.2154 10.0804 13.5037 11.8137C11.5375 11.6025 6.87373 11.4887 3.75373 14.6412C3.45107 14.9457 3.28119 15.3576 3.28119 15.7869C3.28119 16.2162 3.45107 16.628 3.75373 16.9325L22.1162 35.3275C22.4207 35.6302 22.8325 35.8 23.2619 35.8C23.6912 35.8 24.103 35.6302 24.4075 35.3275C27.5762 32.0775 27.4787 27.495 27.2837 25.5775L32.5 20.3775C37.6837 15.1937 35.3275 5.46 35.23 5.05375C35.155 4.76065 34.9996 4.49432 34.7814 4.28474C34.5632 4.07516 34.2909 3.93066 33.995 3.8675ZM30.16 18.0862L24.375 23.8387C24.1876 24.0279 24.0496 24.2602 23.9731 24.5153C23.8966 24.7703 23.884 25.0402 23.9362 25.3012C24.2873 27.4752 23.9817 29.7044 23.0587 31.7037L7.34498 15.9575C9.37598 15.0227 11.6464 14.7389 13.845 15.145C14.1051 15.1789 14.3696 15.1493 14.6157 15.0587C14.8619 14.9682 15.0825 14.8193 15.2587 14.625C15.2587 14.625 17.5337 12.2687 20.9625 8.84C23.0708 7.14693 25.7401 6.31133 28.4375 6.5C29.7062 6.50628 30.9724 6.61497 32.2237 6.825C32.6137 9.14875 33.2312 15.015 30.16 18.0862Z" fill="white"/>
<path d="M25.5613 16.7375C27.3562 16.7375 28.8113 15.2825 28.8113 13.4875C28.8113 11.6926 27.3562 10.2375 25.5613 10.2375C23.7664 10.2375 22.3113 11.6926 22.3113 13.4875C22.3113 15.2825 23.7664 16.7375 25.5613 16.7375Z" fill="white"/>
<path d="M8.125 26C4.875 27.625 4.875 34.125 4.875 34.125C7.88299 34.0392 10.7626 32.8873 13 30.875L8.125 26Z" fill="white"/>
</svg>
