<svg width="60" height="48" viewBox="0 0 60 48" fill="none" xmlns="http://www.w3.org/2000/svg">
<path d="M30.4184 20.4804C30.3687 20.4169 30.3052 20.3656 30.2327 20.3303C30.1602 20.295 30.0806 20.2766 30 20.2766C29.9194 20.2766 29.8398 20.295 29.7673 20.3303C29.6948 20.3656 29.6313 20.4169 29.5816 20.4804L22.1441 29.8902C22.0828 29.9685 22.0448 30.0625 22.0344 30.1614C22.0239 30.2603 22.0415 30.3601 22.0852 30.4495C22.1288 30.5388 22.1967 30.6141 22.2811 30.6667C22.3655 30.7193 22.463 30.7471 22.5625 30.7468H27.4699V46.8437C27.4699 47.1359 27.709 47.375 28.0012 47.375H31.9855C32.2777 47.375 32.5168 47.1359 32.5168 46.8437V30.7535H37.4375C37.8824 30.7535 38.1281 30.2422 37.8559 29.8968L30.4184 20.4804Z" fill="#FBC603"/>
<path d="M49.882 14.3512C46.8406 6.3293 39.091 0.625 30.0133 0.625C20.9355 0.625 13.1859 6.32266 10.1445 14.3445C4.45352 15.8387 0.25 21.025 0.25 27.1875C0.25 34.5254 6.19336 40.4688 13.5246 40.4688H16.1875C16.4797 40.4688 16.7188 40.2297 16.7188 39.9375V35.9531C16.7188 35.6609 16.4797 35.4219 16.1875 35.4219H13.5246C11.2867 35.4219 9.18164 34.532 7.61445 32.9184C6.05391 31.3113 5.22383 29.1465 5.29688 26.902C5.35664 25.1488 5.9543 23.502 7.03672 22.1141C8.1457 20.6996 9.69961 19.6703 11.4262 19.2121L13.943 18.5547L14.866 16.1242C15.4371 14.6102 16.234 13.1957 17.2367 11.9141C18.2266 10.6438 19.3993 9.52709 20.7164 8.60039C23.4457 6.68125 26.6598 5.66523 30.0133 5.66523C33.3668 5.66523 36.5809 6.68125 39.3102 8.60039C40.6316 9.53008 41.8004 10.6457 42.7898 11.9141C43.7926 13.1957 44.5895 14.6168 45.1605 16.1242L46.077 18.548L48.5871 19.2121C52.1863 20.1816 54.7031 23.4555 54.7031 27.1875C54.7031 29.3855 53.8465 31.4574 52.2926 33.0113C51.5305 33.7778 50.624 34.3856 49.6255 34.7993C48.6269 35.2131 47.5562 35.4247 46.4754 35.4219H43.8125C43.5203 35.4219 43.2812 35.6609 43.2812 35.9531V39.9375C43.2812 40.2297 43.5203 40.4688 43.8125 40.4688H46.4754C53.8066 40.4688 59.75 34.5254 59.75 27.1875C59.75 21.0316 55.5598 15.852 49.882 14.3512Z" fill="#FBC603"/>
</svg>
