<svg width="41" height="41" viewBox="0 0 41 41" fill="none" xmlns="http://www.w3.org/2000/svg">
<path d="M20.5 0C9.17888 0 0 9.17888 0 20.5C0 31.8211 9.17888 41 20.5 41C31.8211 41 41 31.8211 41 20.5C41 9.17888 31.8211 0 20.5 0ZM17.0833 27.3333H13.6667V17.0833H17.0833V27.3333ZM15.375 15.5612C14.338 15.5612 13.4958 14.7139 13.4958 13.6667C13.4958 12.6212 14.3363 11.7721 15.375 11.7721C16.4137 11.7721 17.2542 12.6212 17.2542 13.6667C17.2542 14.7139 16.412 15.5612 15.375 15.5612ZM29.0417 27.3333H25.6284V22.4458C25.6284 19.2324 22.2083 19.504 22.2083 22.4458V27.3333H18.7917V17.0833H22.2083V18.9505C23.698 16.1899 29.0417 15.9849 29.0417 21.595V27.3333Z" fill="#414D52"/>
</svg>
