<svg width="39" height="41" viewBox="0 0 39 41" fill="none" xmlns="http://www.w3.org/2000/svg">
<path d="M25.3498 20.4998C25.3498 22.1309 24.7335 23.6952 23.6364 24.8485C22.5393 26.0019 21.0513 26.6498 19.4998 26.6498C17.9483 26.6498 16.4603 26.0019 15.3632 24.8485C14.2661 23.6952 13.6498 22.1309 13.6498 20.4998C13.6498 20.1493 13.6849 19.8069 13.7453 19.4748H11.6998V27.6687C11.6998 28.2386 12.1385 28.6998 12.6806 28.6998H26.3209C26.5807 28.6993 26.8297 28.5904 27.0132 28.3971C27.1967 28.2038 27.2998 27.9418 27.2998 27.6687V19.4748H25.2542C25.3147 19.8069 25.3498 20.1493 25.3498 20.4998ZM19.4998 24.5998C20.0121 24.5997 20.5193 24.4935 20.9926 24.2873C21.4658 24.081 21.8958 23.7788 22.2579 23.3979C22.6201 23.017 22.9073 22.5649 23.1032 22.0672C23.2991 21.5696 23.3999 21.0363 23.3998 20.4978C23.3997 19.9592 23.2986 19.426 23.1025 18.9285C22.9063 18.4309 22.6189 17.9789 22.2565 17.5982C21.8942 17.2175 21.4641 16.9155 20.9908 16.7096C20.5174 16.5036 20.0101 16.3976 19.4978 16.3978C18.4632 16.398 17.4711 16.8304 16.7397 17.5997C16.0083 18.3689 15.5976 19.4122 15.5978 20.4998C15.5981 21.5875 16.0093 22.6305 16.7411 23.3994C17.4729 24.1683 18.4652 24.6001 19.4998 24.5998ZM24.1798 16.1948H26.5178C26.6732 16.1948 26.8222 16.1301 26.9322 16.0148C27.0422 15.8995 27.1043 15.7431 27.1048 15.5798V13.1219C27.1048 12.9582 27.0429 12.8013 26.9329 12.6856C26.8228 12.5698 26.6735 12.5048 26.5178 12.5048H24.1798C24.0241 12.5048 23.8748 12.5698 23.7648 12.6856C23.6547 12.8013 23.5928 12.9582 23.5928 13.1219V15.5798C23.5948 15.9181 23.858 16.1948 24.1798 16.1948ZM19.4998 0.819824C14.5349 0.819824 9.77343 2.89325 6.26275 6.58396C2.75207 10.2747 0.779785 15.2804 0.779785 20.4998C0.779785 25.7193 2.75207 30.725 6.26275 34.4157C9.77343 38.1064 14.5349 40.1798 19.4998 40.1798C21.9581 40.1798 24.3924 39.6708 26.6636 38.6818C28.9348 37.6928 30.9985 36.2431 32.7368 34.4157C34.4751 32.5882 35.854 30.4187 36.7948 28.031C37.7356 25.6433 38.2198 23.0842 38.2198 20.4998C38.2198 17.9154 37.7356 15.3563 36.7948 12.9686C35.854 10.5809 34.4751 8.41142 32.7368 6.58396C30.9985 4.75651 28.9348 3.30689 26.6636 2.31787C24.3924 1.32886 21.9581 0.819824 19.4998 0.819824ZM29.2498 28.4723C29.2498 29.7248 28.2748 30.7498 27.0833 30.7498H11.9162C10.7248 30.7498 9.74979 29.7248 9.74979 28.4723V12.5274C9.74979 11.2748 10.7248 10.2498 11.9162 10.2498H27.0833C28.2748 10.2498 29.2498 11.2748 29.2498 12.5274V28.4723Z" fill="#414D52"/>
</svg>
