<svg width="40" height="40" viewBox="0 0 40 40" fill="none" xmlns="http://www.w3.org/2000/svg">
<g clip-path="url(#clip0_616_905)">
<path d="M24.0213 19.0591C24.0788 18.8547 24.1181 18.6456 24.1387 18.4343C24.1525 17.6233 24.1325 16.8098 24.15 15.9988C24.1637 15.3028 24.4586 15.0066 25.1496 14.9991C26.7108 14.9874 28.2724 14.9874 29.8344 14.9991C30.4955 14.9991 30.7916 15.2915 30.8066 15.9476C30.8241 16.7598 30.7991 17.572 30.8191 18.3843C30.8191 18.5942 30.9303 18.8017 30.9903 19.0091C31.1765 18.9129 31.3977 18.8529 31.5439 18.7142C32.105 18.1869 32.6386 17.6295 33.1871 17.0897C33.757 16.5286 34.1868 16.5136 34.7392 17.0585C35.8222 18.1265 36.8964 19.2015 37.9619 20.2837C38.4617 20.791 38.4618 21.2384 37.9694 21.7445C37.4771 22.2506 36.9872 22.7067 36.5186 23.2078C36.3192 23.4519 36.1364 23.709 35.9713 23.9775C36.2799 24.045 36.5861 24.155 36.896 24.1687C37.582 24.1975 38.2706 24.1687 38.9566 24.1812C39.7289 24.1962 39.995 24.4724 39.9988 25.2534C40.0038 26.7529 40.0038 28.2525 39.9988 29.752C39.9988 30.548 39.7076 30.8391 38.9041 30.8504C38.1543 30.8616 37.4046 30.8404 36.6548 30.8617C36.4178 30.8898 36.1842 30.9417 35.9575 31.0166C36.0737 31.2178 36.1562 31.4502 36.3112 31.6139C36.826 32.1587 37.3708 32.6748 37.8957 33.2097C38.4517 33.777 38.4605 34.2094 37.9132 34.7654C36.8735 35.8168 35.8284 36.8623 34.7779 37.902C34.1531 38.5268 33.767 38.5155 33.1372 37.8932C32.5611 37.3221 31.995 36.7398 31.4089 36.1775C31.3052 36.0788 31.094 35.9763 30.9953 36.0188C30.8966 36.0613 30.8129 36.2812 30.8104 36.4249C30.7929 37.2784 30.8104 38.1319 30.7966 38.9854C30.7866 39.7289 30.5217 39.985 29.767 39.985C28.2258 39.99 26.6846 39.99 25.1434 39.985C24.4374 39.985 24.155 39.7089 24.1437 39.0066C24.1262 38.1531 24.1437 37.2984 24.1275 36.4462C24.1275 36.2862 24.0025 36.1287 23.9363 35.97C23.7963 36.0388 23.6264 36.0788 23.5189 36.1825C22.9203 36.7611 22.3455 37.3634 21.747 37.9419C21.1871 38.483 20.7885 38.483 20.2474 37.9419C19.1803 36.8898 18.1198 35.8305 17.0659 34.7642C16.4761 34.1694 16.4836 33.7782 17.0822 33.1684C17.5933 32.6486 18.1218 32.1462 18.6229 31.6189C18.7695 31.4334 18.898 31.2342 19.0066 31.0241C18.7566 30.9579 18.518 30.8442 18.2718 30.8367C17.522 30.8117 16.7723 30.8367 16.0225 30.8254C15.2727 30.8142 15.0041 30.5318 15.0003 29.7995C14.9928 28.2583 14.9928 26.7171 15.0003 25.1759C15.0003 24.4337 15.2652 24.1762 16.0287 24.1612C16.7573 24.145 17.4858 24.1737 18.2143 24.1475C18.4817 24.1387 18.7441 24.0225 19.0103 23.96C18.8892 23.7347 18.7482 23.5206 18.5892 23.3202C18.0893 22.7904 17.5595 22.2893 17.0522 21.7657C16.5048 21.2009 16.4923 20.8123 17.0297 20.2662C18.1127 19.1682 19.2011 18.0786 20.2949 16.9972C20.7685 16.5299 21.2359 16.5261 21.712 16.9972C22.418 17.6958 23.1015 18.418 23.7951 19.1303L24.0213 19.0591ZM38.2893 29.1809V27.3665C38.2893 25.847 38.2893 25.847 36.7485 25.8507C34.9591 25.8507 34.9766 25.8507 34.2293 24.2562C33.9644 23.6926 34.0444 23.2715 34.4967 22.8691C35.1215 22.3181 35.7226 21.7445 36.2987 21.2209L33.8332 18.7554C33.5208 19.0953 33.1946 19.474 32.8422 19.8251C31.5489 21.1147 31.5489 21.1035 29.8844 20.4736C29.3683 20.2775 29.1159 19.9463 29.1234 19.394C29.1334 18.6655 29.1434 17.9357 29.1084 17.2084C29.1009 17.036 28.9247 16.7323 28.816 16.7286C27.8288 16.6911 26.8379 16.7061 25.7919 16.7061C25.7919 17.3671 25.737 17.9319 25.8044 18.4818C25.9419 19.6214 25.6407 20.3562 24.4111 20.7036C23.4439 20.976 23.3864 21.0785 22.6617 20.3624C22.1081 19.8114 21.5545 19.2603 21.0709 18.7767L18.6967 21.1347C19.0403 21.4621 19.4227 21.8132 19.7901 22.1781C21.0397 23.4277 21.0309 23.4277 20.4499 25.0522C20.2562 25.5945 19.93 25.8707 19.3402 25.8545C18.6117 25.8357 17.8832 25.862 17.1546 25.847C16.8185 25.847 16.6548 25.9444 16.6623 26.3081C16.6785 27.1191 16.6448 27.9326 16.6873 28.7423C16.696 28.896 16.9497 29.1384 17.1147 29.1622C17.5481 29.2265 17.9885 29.2303 18.423 29.1734C19.6039 29.006 20.3411 29.3684 20.6835 30.6092C20.9335 31.5214 21.0234 31.6614 20.3524 32.3112C19.7888 32.8573 19.204 33.3809 18.5442 33.9944C19.324 34.7367 19.99 35.334 20.6073 35.9763C20.926 36.3074 21.1247 36.2687 21.4108 35.9588C21.8919 35.439 22.4105 34.9591 22.9103 34.4493C23.2527 34.1044 23.6176 34.0094 24.0962 34.1994C25.9382 34.9279 25.8144 34.5605 25.8157 36.6548C25.8157 38.3231 25.8157 38.3231 27.4639 38.3243C29.1459 38.3243 29.1509 38.3243 29.1434 36.6273C29.1347 34.6492 29.1272 34.9941 30.6429 34.2943C31.2952 33.9932 31.7751 34.0582 32.2474 34.5917C32.7785 35.194 33.3471 35.7626 33.8569 36.2999L36.3562 33.8245C35.9663 33.4958 35.5739 33.1234 35.1415 32.806C34.1293 32.0563 33.8269 31.2215 34.4755 30.0344C34.7704 29.4933 35.0216 29.1597 35.6676 29.1772C36.5136 29.2072 37.3583 29.1847 38.2893 29.1847V29.1809Z" fill="white"/>
<path d="M32.6848 13.3108L31.5602 11.9925L34.7067 9.00094L31.0691 5.33709C30.1731 6.26555 29.2409 7.239 28.2999 8.2112C27.6114 8.91847 27.439 8.89723 26.5605 8.48986C25.5283 8.01001 24.4661 7.58513 23.3927 7.204C22.7767 6.98532 22.468 6.67042 22.483 5.98814C22.5155 4.59857 22.493 3.2065 22.493 1.7657H17.5071V2.7379C17.5071 3.86255 17.4996 4.9872 17.5071 6.11185C17.5071 6.61169 17.2896 6.91659 16.821 7.10403C15.5714 7.60387 14.3264 8.11914 13.0859 8.64981C12.5861 8.86724 12.2112 8.73727 11.8551 8.37239C10.8666 7.36145 9.86694 6.35926 8.876 5.35708L5.41958 8.93721C6.2943 9.81194 7.24276 10.7704 8.19621 11.7251C8.89725 12.4261 8.87725 12.5711 8.44614 13.462C7.97161 14.4544 7.55031 15.4714 7.18403 16.5086C6.86663 17.4008 6.78416 17.517 5.81571 17.517C4.60734 17.517 3.39896 17.5045 2.19184 17.5333C2.01565 17.5333 1.692 17.747 1.692 17.8669C1.65826 19.3814 1.66951 20.8972 1.66951 22.5005H5.02095C6.9441 22.5005 6.78665 22.3643 7.35897 24.1475C7.6642 25.0314 8.04812 25.8863 8.50611 26.7017C8.82602 27.3002 8.77104 27.7363 8.28994 28.2012C7.29025 29.1671 6.30805 30.1618 5.32086 31.1428C6.51799 32.3087 7.68763 33.4496 8.91724 34.6417L11.955 31.5027L13.0547 32.8123C13.0285 32.841 12.901 32.9922 12.7623 33.1321C11.6889 34.2081 10.618 35.2865 9.53829 36.3561C8.98847 36.901 8.58359 36.9035 8.03876 36.3561C6.57339 34.8766 5.11551 33.3912 3.66513 31.9C3.12155 31.3415 3.1353 30.9803 3.69887 30.4092C4.62233 29.477 5.54079 28.5348 6.483 27.6289C6.77416 27.3477 6.7904 27.129 6.60796 26.7679C6.28079 26.0955 5.99656 25.4031 5.75697 24.6948C5.62452 24.3062 5.42708 24.1949 5.03595 24.1949C3.74511 24.2162 2.45301 24.2062 1.16216 24.2024C0.269943 24.2024 -0.00497598 23.93 -0.00622559 23.0603C-0.00622559 21.0201 -0.00622559 18.9791 -0.00622559 16.9372C-0.00622559 16.1212 0.261192 15.845 1.07219 15.8388C2.40552 15.8288 3.73886 15.8226 5.07094 15.8388C5.44582 15.845 5.61951 15.7038 5.73948 15.354C5.98016 14.6241 6.26135 13.9082 6.58172 13.2096C6.75917 12.8348 6.70668 12.6173 6.42552 12.3461C5.49956 11.4464 4.59359 10.5267 3.68262 9.612C3.07656 9.00344 3.07282 8.63105 3.68262 8.02874C5.13467 6.59586 6.59005 5.16589 8.04876 3.73884C8.64233 3.15777 9.00346 3.15652 9.59078 3.73884C10.5267 4.6573 11.4652 5.57952 12.3724 6.52172C12.6223 6.78414 12.8235 6.84786 13.1709 6.68291C13.8832 6.34302 14.6155 6.04312 15.3552 5.7707C15.6851 5.64574 15.8001 5.48579 15.7951 5.13714C15.7763 3.8263 15.7838 2.51297 15.7951 1.20213C15.7951 0.286162 16.08 0.00625449 16.9872 0.00500488C18.9866 0.00500488 20.986 0.00500488 22.9853 0.00500488C23.8601 0.00500488 24.155 0.291158 24.16 1.15339C24.1662 2.44548 24.1787 3.73633 24.1512 5.02718C24.1437 5.44705 24.2599 5.65199 24.6773 5.78445C25.3905 6.01163 26.0867 6.28933 26.7604 6.61544C27.1603 6.80913 27.3852 6.72916 27.6764 6.43175C28.5424 5.53203 29.4358 4.65854 30.3218 3.77757C30.9953 3.10653 31.3452 3.09403 32.0013 3.74758C33.4333 5.17213 34.86 6.60211 36.2812 8.0375C36.8885 8.65106 36.8873 9.02094 36.2912 9.63075C35.1191 10.8329 33.9382 12.0325 32.6848 13.3108Z" fill="white"/>
<path d="M19.9625 11.7639C19.9775 11.8888 19.9925 11.9688 19.9963 12.0501C20.04 13.2909 20.04 13.2909 18.8266 13.4671C16.1262 13.8607 13.7332 16.3162 13.4108 19.0241C13.3746 19.3315 13.3396 19.6389 13.2971 20.0113C12.9535 20.0113 12.6461 20.0113 12.3387 20.0113C12.1362 20.0113 11.9338 19.9926 11.7376 19.9826C11.4552 15.3753 15.8526 11.4577 19.9625 11.7639Z" fill="white"/>
<path d="M27.4939 23.3378C28.5999 23.344 29.6585 23.7876 30.4386 24.5717C31.2187 25.3558 31.6569 26.4167 31.6576 27.5227C31.6576 29.802 29.7382 31.7114 27.4714 31.6951C26.3657 31.6798 25.31 31.232 24.5305 30.4476C23.751 29.6632 23.3098 28.6047 23.3015 27.499C23.3133 26.3936 23.7598 25.3373 24.5443 24.5586C25.3289 23.7799 26.3885 23.3413 27.4939 23.3378ZM27.4539 25.0135C26.7921 25.0257 26.1622 25.2998 25.7023 25.7759C25.2425 26.2519 24.9902 26.8909 25.0009 27.5527C25.0073 27.88 25.0781 28.2028 25.2093 28.5027C25.3405 28.8026 25.5295 29.0737 25.7656 29.3005C26.0016 29.5273 26.2801 29.7053 26.585 29.8244C26.8899 29.9434 27.2153 30.0012 27.5426 29.9944C28.1932 29.9738 28.8106 29.7019 29.2651 29.236C29.7197 28.77 29.9761 28.1461 29.9806 27.4952C29.9641 26.8345 29.6912 26.206 29.2196 25.7429C28.7481 25.2797 28.1149 25.0182 27.4539 25.0135Z" fill="white"/>
</g>
<defs>
<clipPath id="clip0_616_905">
<rect width="40" height="40" fill="white"/>
</clipPath>
</defs>
</svg>
