<svg width="35" height="35" viewBox="0 0 35 35" fill="none" xmlns="http://www.w3.org/2000/svg">
<g clip-path="url(#clip0_616_881)">
<path d="M15.065 7.33187C13.095 4.67835 13.0343 2.67687 14.8273 1.04224C15.5581 0.372946 16.5114 0.00113437 17.5008 -0.000543612C18.4903 -0.0022216 19.4448 0.366353 20.1779 1.03317C21.9864 2.65354 21.9334 4.62261 19.9557 7.33187C20.1831 7.45243 20.4027 7.56391 20.6171 7.68446C22.8054 8.91335 24.0533 10.7645 24.2419 13.2896C24.3026 14.1089 24.145 14.2515 23.3441 14.2528C19.448 14.2528 15.5524 14.2528 11.6572 14.2528C10.8821 14.2528 10.6883 14.0648 10.7529 13.2793C10.9725 10.7385 12.2165 8.8615 14.4539 7.64947C14.6555 7.54317 14.8557 7.44206 15.065 7.33187ZM17.5052 13.1341C19.1173 13.1341 20.7282 13.1341 22.3404 13.1341C23.0896 13.1341 23.1555 13.0421 22.9591 12.3032C22.7709 11.5468 22.427 10.8383 21.9495 10.2232C21.4721 9.60817 20.8717 9.10017 20.1869 8.73187C17.0194 6.95854 12.9025 8.76558 12.0383 12.2993C11.8561 13.0421 11.922 13.1328 12.67 13.1328C14.2821 13.1354 15.8939 13.1358 17.5052 13.1341ZM17.5258 6.9028C18.2892 6.89592 19.0185 6.58504 19.5534 6.03855C20.0883 5.49205 20.385 4.75471 20.3781 3.98872C20.3713 3.22274 20.0615 2.49086 19.5169 1.95409C18.9723 1.41732 18.2375 1.11962 17.4742 1.1265C15.9124 1.13687 14.5909 2.48243 14.6102 4.04058C14.6255 4.8059 14.9395 5.53463 15.4848 6.06993C16.0301 6.60523 16.763 6.90431 17.5258 6.9028Z" fill="white"/>
<path d="M4.35853 22.2289C3.20883 21.1607 2.57197 19.9293 2.80837 18.3543C2.9371 17.4256 3.39586 16.5749 4.10017 15.9587C4.80823 15.3145 5.7248 14.9493 6.68039 14.9307C7.63598 14.9122 8.56596 15.2414 9.29837 15.8576C10.2788 16.6872 10.7542 17.7411 10.7465 19.0374C10.7387 20.3337 10.1006 21.3215 9.14981 22.247C9.45726 22.4 9.68591 22.5063 9.90293 22.6269C12.0796 23.8726 13.3197 25.725 13.4954 28.2554C13.5471 28.9969 13.374 29.1822 12.6247 29.1822C8.73127 29.1822 4.83693 29.1822 0.941721 29.1822C0.120136 29.1822 -0.0542563 28.993 0.0193762 28.1802C0.258359 25.5539 1.56953 23.6639 3.91415 22.4869C4.03945 22.4207 4.16863 22.3417 4.35853 22.2289ZM1.22462 28.0622C4.95405 28.0622 8.63567 28.0752 12.3341 28.0622C11.9646 24.977 9.33195 22.8045 6.39182 22.9872C3.71263 23.1441 1.22592 25.5306 1.22462 28.057V28.0622ZM3.89606 18.9454C3.89283 19.324 3.96394 19.6995 4.10533 20.0505C4.24673 20.4016 4.45565 20.7212 4.72015 20.9912C4.98465 21.2612 5.29956 21.4763 5.6469 21.6241C5.99423 21.772 6.36719 21.8498 6.74448 21.853C7.49906 21.8405 8.21872 21.5318 8.7491 20.993C9.27947 20.4542 9.57831 19.7284 9.58152 18.9711C9.58473 18.2137 9.29206 17.4853 8.76627 16.9421C8.24049 16.3988 7.52347 16.0839 6.76903 16.065C6.39211 16.064 6.01869 16.1376 5.67018 16.2816C5.32166 16.4257 5.00489 16.6373 4.738 16.9044C4.47112 17.1715 4.25938 17.4888 4.1149 17.8381C3.97043 18.1875 3.89606 18.562 3.89606 18.9402V18.9454Z" fill="white"/>
<path d="M25.8812 22.2289C24.6398 21.1439 24.0727 19.8502 24.3104 18.2739C24.4476 17.3678 24.9063 16.5419 25.6022 15.9483C26.3125 15.3073 27.2299 14.9457 28.1851 14.9305C29.1403 14.9152 30.0688 15.2473 30.7991 15.8654C31.7912 16.6976 32.251 17.7696 32.2368 19.0504C32.2226 20.3311 31.6232 21.35 30.6298 22.1991C31.184 22.5283 31.6633 22.7694 32.0947 23.0754C33.8529 24.3198 34.8153 26.0296 34.9858 28.1828C35.0491 28.9891 34.8734 29.1809 34.0518 29.1809C30.1764 29.1861 26.3053 29.1861 22.4385 29.1809C21.6066 29.1809 21.4542 29.015 21.5201 28.1763C21.719 25.6187 23.0044 23.7793 25.2288 22.5685C25.4149 22.4713 25.6009 22.3767 25.8812 22.2289ZM33.7612 28.0065C33.8477 25.3244 30.896 22.8213 27.9054 22.9755C25.2146 23.1194 22.4799 25.7755 22.7692 28.0065H33.7612ZM31.1091 18.9713C31.1086 18.404 30.9407 17.8495 30.6265 17.3778C30.3124 16.9062 29.8662 16.5384 29.344 16.3209C28.8219 16.1033 28.2472 16.0459 27.6926 16.1556C27.1379 16.2654 26.6281 16.5375 26.2273 16.9377C25.8266 17.3378 25.5529 17.8481 25.4407 18.4042C25.3286 18.9602 25.383 19.5371 25.5972 20.0622C25.8114 20.5872 26.1757 21.0368 26.6442 21.3544C27.1126 21.6719 27.6643 21.8431 28.2297 21.8465C28.9918 21.8485 29.7235 21.5468 30.2639 21.0077C30.8043 20.4685 31.1093 19.736 31.1117 18.9713H31.1091Z" fill="white"/>
<path d="M17.522 34.9987C14.3857 35.0024 11.3151 34.0967 8.6796 32.3906C8.57109 32.3206 8.46387 32.2467 8.36052 32.1702C8.04403 31.9369 7.65908 31.6996 7.97298 31.2395C8.27139 30.8065 8.62663 31.01 8.98575 31.2226C9.72466 31.6595 10.4545 32.13 11.2361 32.4748C16.309 34.7019 21.1829 34.278 25.867 31.3302C25.9574 31.2719 26.0414 31.2006 26.1331 31.1474C26.4573 30.9517 26.8423 30.8454 27.0076 31.2563C27.0903 31.4637 26.9508 31.933 26.7661 32.0496C25.8218 32.6446 24.8633 33.2358 23.8492 33.6908C21.859 34.5801 19.7004 35.0263 17.522 34.9987Z" fill="white"/>
<path d="M1.94157 13.6007C2.47121 12.4963 2.90009 11.432 3.46848 10.4481C5.10519 7.60796 7.42139 5.47296 10.3525 4.01463C10.3719 4.00426 10.3874 3.99 10.4067 3.98092C10.7568 3.8124 11.125 3.68407 11.3588 4.11963C11.5926 4.55518 11.2916 4.78722 10.948 4.98555C10.2233 5.40555 9.47147 5.78926 8.78811 6.27018C6.283 8.0231 4.37183 10.5027 3.31088 13.3765C3.24112 13.558 3.21141 13.7965 3.07836 13.895C2.88846 14.0454 2.60039 14.2009 2.39241 14.1543C2.2206 14.1361 2.10176 13.8211 1.94157 13.6007Z" fill="white"/>
<path d="M24.0804 3.78387C24.3039 3.87202 24.468 3.92388 24.6204 4.00036C28.5591 5.99795 31.3132 9.05591 32.8298 13.2248C32.977 13.6292 33.0545 14.0324 32.5792 14.2061C32.1038 14.3798 31.9036 13.987 31.7627 13.6007C30.3702 9.78184 27.8697 6.94554 24.2613 5.09184C24.0714 4.99332 23.8479 4.89869 23.7342 4.73536C23.6789 4.65225 23.6421 4.55819 23.6263 4.45954C23.6105 4.3609 23.616 4.26 23.6425 4.16369C23.7071 3.99387 23.9332 3.89406 24.0804 3.78387Z" fill="white"/>
</g>
<defs>
<clipPath id="clip0_616_881">
<rect width="35" height="35" fill="white"/>
</clipPath>
</defs>
</svg>
