<svg width="27" height="39" viewBox="0 0 27 39" fill="none" xmlns="http://www.w3.org/2000/svg">
    <path d="M10.0833 36.5833H16.9167H10.0833ZM1.54167 14.375C1.54167 11.2034 2.80156 8.16176 5.04418 5.91914C7.2868 3.67652 10.3285 2.41663 13.5 2.41663C16.6715 2.41663 19.7132 3.67652 21.9558 5.91914C24.1984 8.16176 25.4583 11.2034 25.4583 14.375C25.4595 16.3004 24.9938 18.1974 24.1012 19.9034C23.2086 21.6094 21.9157 23.0736 20.3333 24.1705L19.4074 28.5541C19.2848 29.3621 18.8767 30.0994 18.257 30.6322C17.6374 31.1651 16.8473 31.4581 16.03 31.4583H10.97C10.1527 31.4581 9.36261 31.1651 8.74296 30.6322C8.12331 30.0994 7.71517 29.3621 7.59258 28.5541L6.66667 24.1893C5.08374 23.0885 3.79081 21.6209 2.89834 19.9118C2.00588 18.2027 1.54039 16.303 1.54167 14.375V14.375Z" stroke="white" stroke-width="3" stroke-linecap="round" stroke-linejoin="round"/>
    <path d="M6.66667 24.625H20.3333" stroke="white" stroke-width="3" stroke-linecap="round" stroke-linejoin="round"/>
    </svg>
    