<svg width="41" height="41" viewBox="0 0 41 41" fill="none" xmlns="http://www.w3.org/2000/svg">
<path d="M35.9003 13.5773C36.1759 12.6102 36.2357 11.5943 36.0753 10.6016C35.915 9.60884 35.5385 8.66346 34.9724 7.83231C34.4063 7.00116 33.6646 6.30453 32.7996 5.79171C31.9345 5.27889 30.9674 4.9624 29.9666 4.86463C29.565 3.71237 28.8151 2.71346 27.8208 2.00614C26.8265 1.29882 25.6369 0.918083 24.4167 0.916626C22.9667 0.921537 21.5704 1.46607 20.5 2.44413C19.4295 1.46607 18.0333 0.921537 16.5833 0.916626C14.0355 0.916626 11.8637 2.544 11.051 4.86267C10.0484 4.95799 9.07909 5.27278 8.21177 5.78471C7.34446 6.29663 6.60042 6.99313 6.03245 7.82482C5.46447 8.65651 5.08647 9.60299 4.92527 10.5971C4.76406 11.5913 4.8236 12.6087 5.09966 13.5773C3.84247 14.2461 2.7898 15.2428 2.05334 16.4617C1.31688 17.6805 0.92409 19.0759 0.916656 20.5C0.916656 22.6052 1.75482 24.585 3.21182 26.046C2.98889 26.788 2.87542 27.5585 2.87499 28.3333C2.87499 32.1658 5.64016 35.3637 9.34924 36.0374C9.89375 37.2408 10.773 38.2622 11.8821 38.9796C12.9912 39.697 14.2833 40.0801 15.6042 40.0833C17.5214 40.0833 19.2545 39.2863 20.5 38.0094C21.1357 38.6652 21.8966 39.1866 22.7376 39.5429C23.5786 39.8991 24.4825 40.0829 25.3958 40.0833C26.7144 40.0809 28.0044 39.6992 29.112 38.9839C30.2197 38.2687 31.0982 37.2499 31.6429 36.0491C32.7356 35.8565 33.7749 35.4343 34.6924 34.8104C35.6099 34.1865 36.3846 33.375 36.9653 32.4297C37.5461 31.4843 37.9197 30.4265 38.0616 29.3261C38.2034 28.2257 38.1102 27.1077 37.7882 26.046C38.5163 25.3176 39.0937 24.4529 39.4876 23.5013C39.8814 22.5497 40.0838 21.5298 40.0833 20.5C40.0759 19.0759 39.6831 17.6805 38.9466 16.4617C38.2102 15.2428 37.1575 14.2461 35.9003 13.5773ZM15.6042 36.1666C14.2118 36.1666 12.9996 35.1796 12.7254 33.8205L12.3102 32.25H10.7083C8.54828 32.25 6.79166 30.4933 6.79166 28.3333C6.79166 27.644 6.95811 26.9977 7.28711 26.4122L8.18012 24.8142L6.64478 23.8154C6.09015 23.4578 5.63384 22.9672 5.31743 22.388C5.00103 21.8089 4.8346 21.1599 4.83332 20.5C4.83332 18.5867 6.2492 16.928 8.12724 16.6381L11.4427 16.129L9.36882 13.493C8.9995 13.0169 8.78532 12.4388 8.75524 11.837C8.72517 11.2352 8.88065 10.6387 9.20067 10.1281C9.52069 9.61751 9.98979 9.21754 10.5445 8.98227C11.0993 8.747 11.7129 8.68778 12.3024 8.81263L14.625 9.15533V6.79163C14.625 6.27224 14.8313 5.77413 15.1986 5.40688C15.5658 5.03962 16.0639 4.83329 16.5833 4.83329C17.1027 4.83329 17.6008 5.03962 17.9681 5.40688C18.3353 5.77413 18.5417 6.27224 18.5417 6.79163V33.2291C18.5417 34.8487 17.2237 36.1666 15.6042 36.1666ZM34.3552 23.8135L32.8199 24.8122L33.7129 26.4102C34.0419 26.9977 34.2083 27.644 34.2083 28.3333C34.2083 30.4933 32.4517 32.25 30.1937 32.25H28.5918L28.2746 33.8205C28.1377 34.483 27.7766 35.078 27.2523 35.5053C26.7279 35.9327 26.0723 36.1662 25.3958 36.1666C23.7763 36.1666 22.4583 34.8487 22.4583 33.2291V6.79163C22.4583 5.71063 23.3357 4.83329 24.4167 4.83329C25.4977 4.83329 26.375 5.71063 26.375 6.88954V9.25325L28.6976 8.81263C29.2871 8.68778 29.9007 8.747 30.4554 8.98227C31.0102 9.21754 31.4793 9.61751 31.7993 10.1281C32.1193 10.6387 32.2748 11.2352 32.2447 11.837C32.2147 12.4388 32.0005 13.0169 31.6312 13.493L29.5573 16.1309L32.8727 16.6401C33.7902 16.7886 34.625 17.2583 35.2284 17.9653C35.8317 18.6722 36.1642 19.5706 36.1667 20.5C36.1667 21.8375 35.4891 23.0752 34.3552 23.8135Z" fill="white"/>
</svg>
