<svg width="41" height="41" viewBox="0 0 41 41" fill="none" xmlns="http://www.w3.org/2000/svg">
<path d="M20.5 0C9.17888 0 0 9.17888 0 20.5C0 31.8211 9.17888 41 20.5 41C31.8211 41 41 31.8211 41 20.5C41 9.17888 31.8211 0 20.5 0ZM28.0867 28.8572C24.4958 29.1032 16.4974 29.1032 12.9116 28.8572C9.02342 28.5907 8.57071 26.6876 8.54167 20.5C8.57071 14.3005 9.02854 12.4093 12.9116 12.1428C16.4974 11.8968 24.4975 11.8968 28.0867 12.1428C31.9766 12.4093 32.4276 14.3124 32.4583 20.5C32.4276 26.6995 31.9715 28.5907 28.0867 28.8572ZM17.0833 16.4991L25.4832 20.4932L17.0833 24.5009V16.4991Z" fill="#414D52"/>
</svg>
